<svg width="52" height="52" viewBox="0 0 52 52" fill="none" xmlns="http://www.w3.org/2000/svg">
<rect width="52" height="52" rx="15" fill="white"/>
<path fill-rule="evenodd" clip-rule="evenodd" d="M19.7747 18.2839C19.7747 19.529 18.8267 20.5366 17.3442 20.5366C15.9194 20.5366 14.9713 19.529 15.0007 18.2839C14.9713 16.9783 15.9193 16 17.3726 16C18.8267 16 19.7463 16.9783 19.7747 18.2839ZM15.1199 36.8191V22.3162H19.6271V36.8181H15.1199V36.8191Z" fill="#222220"/>
<path fill-rule="evenodd" clip-rule="evenodd" d="M23.2403 26.9441C23.2403 25.1352 23.1807 23.593 23.1211 22.3177H27.0361L27.2442 24.3045H27.3331C27.9263 23.3849 29.4089 21.9922 31.8111 21.9922C34.7762 21.9922 37.0005 23.9497 37.0005 28.2186V36.8205H32.4932V28.7833C32.4932 26.9139 31.8413 25.6394 30.2102 25.6394C28.9642 25.6394 28.2234 26.4995 27.9273 27.3292C27.8081 27.6263 27.7494 28.0407 27.7494 28.4569V36.8205H23.2421V26.9441H23.2403Z" fill="#222220"/>
</svg>
