<svg width="52" height="52" viewBox="0 0 52 52" fill="none" xmlns="http://www.w3.org/2000/svg">
<rect width="52" height="52" rx="15" fill="white"/>
<path fill-rule="evenodd" clip-rule="evenodd" d="M38 18.3086C37.1177 18.7006 36.1681 18.9646 35.1722 19.0838C36.1889 18.4742 36.9697 17.5095 37.3368 16.36C36.3865 16.9247 35.3314 17.3335 34.2107 17.5551C33.3123 16.5984 32.0316 16 30.6165 16C27.8975 16 25.6928 18.2047 25.6928 20.9237C25.6928 21.3092 25.7368 21.6852 25.8208 22.046C21.7283 21.8412 18.1005 19.8805 15.6719 16.9015C15.2479 17.6287 15.0055 18.4742 15.0055 19.3766C15.0055 21.0845 15.8735 22.5916 17.1958 23.4747C16.3878 23.4491 15.6295 23.2275 14.9647 22.8587V22.9203C14.9647 25.3066 16.663 27.296 18.9141 27.7496C18.5013 27.8616 18.0661 27.9224 17.6174 27.9224C17.2998 27.9224 16.991 27.8912 16.6902 27.8336C17.3166 29.7895 19.1357 31.2134 21.2899 31.2534C19.6052 32.5733 17.4822 33.3612 15.1751 33.3612C14.7767 33.3612 14.3848 33.338 14 33.2916C16.1791 34.6884 18.7669 35.5043 21.5475 35.5043C30.6037 35.5043 35.5562 28.0016 35.5562 21.4956C35.5562 21.282 35.5522 21.0693 35.5418 20.8589C36.5049 20.1629 37.34 19.2958 38 18.3086Z" fill="#222220"/>
</svg>
