<svg width="1920" height="252" viewBox="0 0 1920 252" fill="none" xmlns="http://www.w3.org/2000/svg">
<path d="M-85 1C244.979 1.81612 578.128 -4.33153 905.629 41.8438C1002.17 55.4553 1098.41 72.8115 1194.75 87.8741C1263.42 98.6105 1336.84 105.803 1402.9 129.042C1432.57 139.481 1443.46 162.976 1441.92 193.549C1441.62 199.541 1424.4 250.076 1429.24 250.601C1456.26 253.529 1501.83 239.504 1524.85 236.014C1646.3 217.606 1768.34 208.577 1891.06 203.274C2318 184.824 2745.62 193.471 3172.76 184.149C3373.89 179.759 3575.09 170.702 3776.05 161.458C3813.07 159.755 3892.3 168.6 3925 146.871" stroke="#222220" stroke-width="2" stroke-linecap="round" stroke-linejoin="round"/>
</svg>
