<svg width="301" height="445" viewBox="0 0 301 445" fill="none" xmlns="http://www.w3.org/2000/svg">
<path d="M-719 27.14C-599.443 122.632 -465.77 197.957 -342.978 288.829C-318.646 306.835 -293.952 325.666 -272.344 347.001C-251.849 367.237 -311.117 346.713 -312.162 346.307C-406.811 309.489 -485.023 232.915 -549.167 156.335C-593.128 103.85 -632.888 44.8817 -660.311 -18.1823C-664.947 -28.8424 -682.366 -56.5096 -660.831 -58.1216C-580.861 -64.1076 -492.769 -11.9008 -425.211 23.3198C-336.547 69.5435 -255.224 125.554 -178.511 189.675C-158.239 206.62 -138.982 224.462 -120.342 243.159C-114.946 248.572 -104.804 256.186 -100.952 263.302C-97.2913 270.067 -116.384 260.752 -123.112 257.051C-162.214 235.543 -197.726 206.944 -232.525 179.256C-297.916 127.229 -359.531 71.103 -417.074 10.4697C-429.981 -3.12994 -472.559 -42.8042 -422.96 -31.206C-365.542 -17.7795 -309.569 12.1724 -258.147 39.6427C-174.542 84.3063 -93.4509 134.139 -17.6801 191.238C66.2032 254.451 149.406 329.47 215.689 411.599C219.707 416.576 232.42 431.044 232.828 438.688C233.704 455.088 201.182 429.05 187.124 420.628C99.9321 368.392 15.8838 306.431 -59.0564 237.602C-86.2755 212.603 -125.127 180.308 -138.693 144.179C-145.579 125.841 -115.143 126.68 -105.107 125.773C-40.434 119.924 30.0455 115.358 93.984 128.551C132.174 136.431 173.003 154.044 202.705 179.951C206.958 183.661 227.394 207.435 210.669 207.735C157.978 208.679 108.389 162.597 73.2093 128.898C41.7285 98.7422 1.65067 61.0262 -9.54332 16.7211C-18.753 -19.7301 38.6568 -3.03834 55.3777 0.919044C112.709 14.4879 164.823 45.3194 203.224 90.3482C207.358 95.1956 240.777 134.54 224.692 140.533C181.132 156.761 131.436 102.416 107.661 75.5881C76.6881 40.638 45.3288 -0.909064 31.6599 -46.4871C25.3134 -67.6492 72.9533 -70.4281 85.3279 -72.8817C154.693 -86.6351 232.967 -93.5251 300 -66.6304" stroke="#222220" stroke-width="2" stroke-linecap="round" stroke-linejoin="round"/>
</svg>
