<svg width="297" height="39" viewBox="0 0 297 39" fill="none" xmlns="http://www.w3.org/2000/svg">
<path d="M1 18.1832C47.5792 17.6153 94.1374 16.6843 140.756 16.6843C165.249 16.6843 189.933 20.0689 214.549 18.1C226.834 17.1173 238.824 16.6843 251.278 16.6843C264.582 16.6843 277.504 13.6863 290.34 13.6863" stroke="#F4F4F4" stroke-width="2" stroke-linecap="round" stroke-linejoin="round"/>
<path d="M290.341 13.6863C283.594 10.3793 276.655 7.58269 270.102 3.94299C267.648 2.5798 265.857 -0.978913 268.52 2.44402C273.94 9.412 282.761 13.4178 291.091 15.2686C302.472 17.7974 291.172 18.6656 285.844 21.1812C278.042 24.8651 269.529 26.957 262.19 31.6741C258.608 33.9764 255.376 36.3324 251.363 37.67" stroke="#F4F4F4" stroke-width="2" stroke-linecap="round" stroke-linejoin="round"/>
</svg>
