<svg width="21" height="373" viewBox="0 0 21 373" fill="none" xmlns="http://www.w3.org/2000/svg">
<path d="M5.4674 139.197C5.4674 200.648 -0.829897 265.53 10.103 326.268C10.58 328.918 14.7385 352.188 14.7385 339.248C14.7385 296.691 9.86162 254.362 9.27886 211.821C8.93322 186.589 9.17585 161.342 9.17585 136.107C9.17585 109.947 5.4674 188.339 5.4674 214.499C5.4674 261.48 3.57141 308.852 7.32163 355.73C7.74603 361.035 8.61054 365.656 10.618 370.563C13.1424 376.734 10.3604 357.222 9.79393 350.579C1.4798 253.077 -2.59455 153.646 5.05535 55.9631C6.3696 39.1811 7.95941 22.2269 11.7512 5.79593C14.4587 -5.93653 12.8843 13.1737 12.8843 14.1399C12.8843 84.1873 13.9544 154.286 11.0301 224.286C9.15717 269.118 7.6886 312.532 15.7687 356.76C16.099 358.568 18.3341 368.459 18.344 368.4C20.2063 357.226 18.2991 343.722 18.0349 332.655C16.3918 263.827 14.7385 195.066 14.7385 126.218C14.7385 94.5973 11.9702 189.398 10.618 220.989C9.71947 241.983 7.32163 262.802 7.32163 283.827" stroke="black" stroke-width="2" stroke-linecap="round" stroke-linejoin="round"/>
</svg>
