<svg width="111" height="46" viewBox="0 0 111 46" fill="none" xmlns="http://www.w3.org/2000/svg">
<path d="M20.3515 37.8176C19.8174 40.0497 18.5396 42.0336 16.7282 43.443C14.9167 44.8524 12.6796 45.6033 10.3847 45.5722C9.03047 45.5921 7.68577 45.3431 6.42853 44.8394C5.17128 44.3358 4.02651 43.5876 3.06055 42.6383C2.0946 41.6889 1.32669 40.5573 0.801331 39.309C0.275971 38.0607 0.00360482 36.7205 3.5543e-05 35.3661C-0.00353374 34.0118 0.261755 32.6702 0.780528 31.4191C1.2993 30.168 2.06124 29.0324 3.02217 28.078C3.9831 27.1235 5.12393 26.3693 6.3785 25.8591C7.63307 25.3488 8.97645 25.0927 10.3308 25.1055C12.6502 25.063 14.9134 25.8215 16.7388 27.2531C18.5641 28.6848 19.8401 30.702 20.3515 32.9648H15.0749C14.7308 31.9704 14.0882 31.1064 13.2348 30.4908C12.3813 29.8752 11.3587 29.538 10.3065 29.5253C6.92171 29.5253 5.02998 32.4833 5.02998 35.2826C5.02998 38.2671 7.05538 41.1454 10.3331 41.1454C13.4787 41.1454 14.7576 38.5071 15.0773 37.8153L20.3515 37.8176Z" fill="#222220"/>
<path d="M27.426 25.4782V37.3907C27.426 38.7196 27.5041 41.1476 29.9837 41.1476C32.4852 41.1476 32.4852 38.9635 32.4852 37.3907V25.4782H37.5217V37.3907C37.5217 40.6957 36.8026 42.1591 35.5503 43.4403C34.8276 44.157 33.9644 44.7162 33.015 45.083C32.0656 45.4497 31.0505 45.616 30.0337 45.5713C28.5938 45.5713 25.9821 45.225 24.357 43.4661C22.7318 41.6799 22.3855 40.2947 22.3855 37.3899V25.4782H27.426Z" fill="#222220"/>
<path d="M40.8276 25.4782H45.8657V40.7755H51.7011V45.1999H40.8276V25.4782Z" fill="#222220"/>
<path d="M54.165 29.9011H50.2753V25.4782H63.0664V29.9011H59.2016V45.1999H54.165V29.9011Z" fill="#222220"/>
<path d="M69.4632 25.4782V37.3907C69.4632 38.7196 69.5414 41.1476 72.0225 41.1476C74.524 41.1476 74.524 38.9635 74.524 37.3907V25.4782H79.5597V37.3907C79.5597 40.6957 78.8406 42.1591 77.5883 43.4403C76.8657 44.1571 76.0025 44.7164 75.0531 45.0832C74.1036 45.4499 73.0886 45.6161 72.0718 45.5713C70.6334 45.5713 68.0217 45.225 66.3958 43.4661C64.769 41.6799 64.4227 40.2947 64.4227 37.3899V25.4782H69.4632Z" fill="#222220"/>
<path d="M82.8022 25.4782H89.0387C92.5033 25.4782 93.8345 25.9035 95.115 26.89C95.8958 27.549 96.5188 28.3748 96.9382 29.3065C97.3576 30.2382 97.5627 31.2521 97.5383 32.2736C97.5383 34.5406 96.3657 37.8706 92.6346 38.4827L97.9916 45.1992H92.2367L87.6793 38.829H87.6254V45.1999H82.8015L82.8022 25.4782ZM87.6262 35.3926H89.4124C92.3704 35.3926 92.7175 33.5267 92.7175 32.5675C92.7175 30.7813 91.4112 29.9019 89.4655 29.9019H87.6269L87.6262 35.3926Z" fill="#222220"/>
<path d="M99.9193 25.4782H110.873V29.9011H104.74V32.9662H110.681V37.3907H104.74V40.7755H110.87V45.1999H99.9193V25.4782Z" fill="#222220"/>
<path d="M44.6384 17.7057L43.5996 20.5574H38.1885L46.1049 0.835663H50.0752L57.9111 20.5574H52.4477L51.4885 17.7057H44.6384ZM46.0244 13.7081H50.155L48.1295 6.96581H48.0514L46.0244 13.7081Z" fill="#222220"/>
<path d="M59.2001 0.835663H65.729C67.942 0.835663 71.8857 0.835649 74.4435 4.50968C75.6963 6.30249 76.3322 8.45403 76.2555 10.6399C76.2555 16.0235 73.5906 20.5543 66.1011 20.5543H59.1993L59.2001 0.835663ZM64.2367 16.1329H66.3958C70.1534 16.1329 71.2189 13.5212 71.2189 10.7219C71.2421 9.44012 70.9101 8.17693 70.2598 7.07214C69.6735 6.19272 68.6604 5.26012 66.4216 5.26012H64.2328L64.2367 16.1329Z" fill="#222220"/>
<path d="M82.6123 7.07217H86.8758V11.6843H91.4597V15.9477H86.8758V20.5598H82.6123V15.9477H78.0284V11.6843H82.6123V7.07217Z" fill="#222220"/>
<path d="M93.9369 0.835663H100.467C102.678 0.835663 106.623 0.835649 109.181 4.50968C110.434 6.3024 111.07 8.45395 110.994 10.6399C110.994 16.0235 108.329 20.5543 100.839 20.5543H93.9377L93.9369 0.835663ZM98.9734 16.1329H101.133C104.89 16.1329 105.956 13.5212 105.956 10.7219C105.979 9.44012 105.647 8.17692 104.997 7.07214C104.41 6.19272 103.397 5.26012 101.158 5.26012H98.9695L98.9734 16.1329Z" fill="#222220"/>
</svg>
