<svg width="1920" height="732" viewBox="0 0 1920 732" fill="none" xmlns="http://www.w3.org/2000/svg">
<path d="M-135.143 268.813C-85.2673 249.062 -33.1074 240.423 19.8889 234.448C192.46 214.995 368.959 241.22 537.636 285.988C614.744 306.453 690.896 331.355 767.398 354.372C819.144 369.941 871.601 386.879 924.909 394.566C952.419 398.532 978.307 397.689 1005.58 397.141C1030.07 396.648 1054.57 400.675 1078.92 403.426C1162.97 412.923 1247.19 419.059 1331.44 425.428C1487.01 437.189 1644.92 454.126 1800.81 450.65C1831.06 449.976 1860.21 446.038 1889.68 440.14C1913.61 435.352 1926.65 460.992 1939.81 478.3" stroke="#FFC6C6" stroke-width="2" stroke-linecap="round" stroke-linejoin="round"/>
</svg>
