<svg width="13" height="40" viewBox="0 0 13 40" fill="none" xmlns="http://www.w3.org/2000/svg">
<path d="M3.92 32.144L3.92 30.704C3.29067 30.7253 2.752 30.848 2.304 31.072C1.84533 31.2853 1.46667 31.584 1.168 31.968C0.869332 32.3413 0.650666 32.7787 0.511999 33.28C0.373333 33.7813 0.304 34.3253 0.304 34.912C0.304 35.4347 0.373333 35.9467 0.511999 36.448C0.639999 36.9387 0.842666 37.3813 1.12 37.776C1.38667 38.16 1.73333 38.4693 2.16 38.704C2.576 38.9387 3.072 39.056 3.648 39.056C4.17067 39.056 4.608 38.9547 4.96 38.752C5.30133 38.5387 5.584 38.2613 5.808 37.92C6.02133 37.568 6.19733 37.1733 6.336 36.736C6.464 36.2987 6.58133 35.856 6.688 35.408C6.784 34.9493 6.88 34.5013 6.976 34.064C7.072 33.6267 7.2 33.2373 7.36 32.896C7.50933 32.544 7.70667 32.2667 7.952 32.064C8.19733 31.8507 8.51733 31.744 8.912 31.744C9.328 31.744 9.66933 31.8293 9.936 32C10.2027 32.1707 10.416 32.3947 10.576 32.672C10.7253 32.9493 10.832 33.264 10.896 33.616C10.96 33.9573 10.992 34.2987 10.992 34.64C10.992 35.0667 10.9387 35.4827 10.832 35.888C10.7253 36.2933 10.56 36.6507 10.336 36.96C10.112 37.2587 9.82933 37.504 9.488 37.696C9.136 37.8773 8.72 37.968 8.24 37.968L8.24 39.408C8.93333 39.408 9.536 39.2853 10.048 39.04C10.5493 38.784 10.9653 38.4427 11.296 38.016C11.616 37.5787 11.856 37.0773 12.016 36.512C12.176 35.936 12.256 35.328 12.256 34.688C12.256 34.1653 12.192 33.6427 12.064 33.12C11.9467 32.5867 11.7547 32.1067 11.488 31.68C11.2107 31.2533 10.8587 30.9067 10.432 30.64C9.99467 30.3627 9.472 30.224 8.864 30.224C8.29867 30.224 7.82933 30.3307 7.456 30.544C7.08267 30.7467 6.77333 31.024 6.528 31.376C6.28267 31.7173 6.09067 32.1067 5.952 32.544C5.80267 32.9813 5.67467 33.4293 5.568 33.888C5.46133 34.336 5.36533 34.7787 5.28 35.216C5.184 35.6533 5.06667 36.048 4.928 36.4C4.78933 36.7413 4.61333 37.0187 4.4 37.232C4.176 37.4347 3.888 37.536 3.536 37.536C3.16267 37.536 2.85333 37.4667 2.608 37.328C2.352 37.1787 2.14933 36.9867 2 36.752C1.85067 36.5067 1.744 36.2293 1.68 35.92C1.616 35.6107 1.584 35.296 1.584 34.976C1.584 34.1867 1.77067 33.5413 2.144 33.04C2.50667 32.528 3.09867 32.2293 3.92 32.144ZM6.384 22.985L6.384 21.577C5.89333 21.6303 5.472 21.7583 5.12 21.961C4.75733 22.1637 4.45867 22.425 4.224 22.745C3.98933 23.0543 3.81867 23.417 3.712 23.833C3.59467 24.2383 3.536 24.6757 3.536 25.145C3.536 25.7957 3.65333 26.3663 3.888 26.857C4.112 27.3477 4.42667 27.7583 4.832 28.089C5.22667 28.409 5.696 28.649 6.24 28.809C6.77333 28.969 7.34933 29.049 7.968 29.049C8.58667 29.049 9.15733 28.969 9.68 28.809C10.192 28.6383 10.6347 28.393 11.008 28.073C11.3813 27.7423 11.6693 27.337 11.872 26.857C12.0747 26.3663 12.176 25.8063 12.176 25.177C12.176 24.121 11.8987 23.289 11.344 22.681C10.7893 22.0623 10 21.6783 8.976 21.529L8.976 22.921C9.616 23.0063 10.112 23.241 10.464 23.625C10.816 23.9983 10.992 24.521 10.992 25.193C10.992 25.6197 10.9067 25.9877 10.736 26.297C10.5653 26.6063 10.3413 26.857 10.064 27.049C9.776 27.241 9.45067 27.385 9.088 27.481C8.72533 27.5663 8.352 27.609 7.968 27.609C7.552 27.609 7.152 27.5663 6.768 27.481C6.37333 27.3957 6.02667 27.257 5.728 27.065C5.42933 26.8623 5.18933 26.5957 5.008 26.265C4.82667 25.9343 4.736 25.5237 4.736 25.033C4.736 24.457 4.88 23.9983 5.168 23.657C5.456 23.3157 5.86133 23.0917 6.384 22.985ZM3.728 20.0552L12 20.0552L12 18.6952L8.32 18.6952C7.78667 18.6952 7.31733 18.6419 6.912 18.5352C6.496 18.4286 6.144 18.2579 5.856 18.0232C5.568 17.7886 5.34933 17.4792 5.2 17.0952C5.05067 16.7112 4.976 16.2472 4.976 15.7032L3.536 15.7032C3.51467 16.4392 3.664 17.0472 3.984 17.5272C4.304 18.0072 4.8 18.4126 5.472 18.7432L5.472 18.7752L3.728 18.7752L3.728 20.0552ZM7.872 13.9684C7.37067 13.9684 6.928 13.9044 6.544 13.7764C6.14933 13.6377 5.81867 13.451 5.552 13.2164C5.28533 12.9817 5.08267 12.7097 4.944 12.4004C4.80533 12.0804 4.736 11.7444 4.736 11.3924C4.736 11.0404 4.80533 10.7097 4.944 10.4004C5.08266 10.0804 5.28533 9.80304 5.552 9.56837C5.81866 9.33371 6.14933 9.15237 6.544 9.02437C6.928 8.88571 7.37067 8.81637 7.872 8.81637C8.37333 8.81637 8.82133 8.88571 9.216 9.02437C9.6 9.15237 9.92533 9.33371 10.192 9.56837C10.448 9.80304 10.6453 10.0804 10.784 10.4004C10.9227 10.7097 10.992 11.0404 10.992 11.3924C10.992 11.7444 10.9227 12.0804 10.784 12.4004C10.6453 12.7097 10.448 12.9817 10.192 13.2164C9.92533 13.451 9.6 13.6377 9.216 13.7764C8.82133 13.9044 8.37333 13.9684 7.872 13.9684ZM7.872 15.4084C8.48 15.4084 9.04533 15.323 9.568 15.1524C10.0907 14.9817 10.5493 14.7257 10.944 14.3844C11.328 14.043 11.632 13.6217 11.856 13.1204C12.0693 12.619 12.176 12.043 12.176 11.3924C12.176 10.731 12.0693 10.155 11.856 9.66437C11.632 9.16304 11.328 8.74171 10.944 8.40037C10.5493 8.05904 10.0907 7.80304 9.568 7.63237C9.04533 7.46171 8.48 7.37637 7.872 7.37637C7.264 7.37637 6.69866 7.46171 6.176 7.63237C5.64266 7.80304 5.184 8.05904 4.8 8.40037C4.40533 8.74171 4.096 9.16304 3.872 9.66437C3.648 10.155 3.536 10.731 3.536 11.3924C3.536 12.043 3.648 12.619 3.872 13.1204C4.096 13.6217 4.40533 14.043 4.8 14.3844C5.184 14.7257 5.64267 14.9817 6.176 15.1524C6.69867 15.323 7.264 15.4084 7.872 15.4084ZM0.575998 5.69287L12 5.69287L12 4.33287L0.575998 4.33287L0.575998 5.69287ZM0.575998 2.146L12 2.146L12 0.785999L0.575998 0.786L0.575998 2.146Z" fill="#F4F4F4"/>
</svg>
