<svg width="125" height="80" viewBox="0 0 125 80" fill="none" xmlns="http://www.w3.org/2000/svg">
<path d="M-11.6456 78.422C11.5322 59.2558 36.7565 43.0313 61.73 26.3038C81.9439 12.7643 101.985 -2.29141 123.452 -13.9449C124.209 -14.3559 96.7758 -12.1414 90.9723 -10.1682C62.2851 -0.414543 31.9398 15.5941 8.209 34.5046C1.10262 40.1675 -11.4961 46.8427 -16.6092 54.6828C-17.4356 55.95 -13.5824 54.0713 -12.293 53.2801C0.518963 45.4182 13.4707 37.9822 26.8766 31.1595C42.898 23.0058 63.093 9.37897 81.1529 6.5571C95.04 4.38726 54.7896 16.4979 42.3071 22.9587C25.3725 31.7238 8.02741 40.9465 -8.1926 51.0141C-19.5923 58.0897 0.724918 39.6396 2.59792 38.0654C9.76179 32.0447 18.834 26.3821 25.0422 19.3978C26.7243 17.5055 4.59733 25.334 1.30306 26.9512C-7.55947 31.3019 -14.8258 38.7923 -23.2993 43.0291C-25.1802 43.9695 -16.2808 34.9112 -14.6669 33.7492C5.23492 19.4199 -21.7664 26.8789 -30.6369 31.8069C-34.8754 34.1617 -0.60315 8.06433 -0.855043 15.6211C-1.27873 28.3316 -15.5762 43.3572 -20.9254 54.467C-26.3904 65.8174 -30.939 73.4433 -13.8037 65.4734C12.3642 53.3023 34.965 35.3879 58.0612 18.4267C63.6856 14.2963 78.2436 3.03372 63.3486 13.8947C45.9278 26.5973 29.0002 39.7939 12.0936 53.1722C4.44261 59.2264 -16.7293 77.6055 6.2667 61.373C28.6241 45.5913 51.5091 29.6804 70.4703 9.79426C71.123 9.10975 83.7123 -3.05558 78.3474 -4.66504C65.7921 -8.43162 46.9767 -4.57148 35.0774 -0.888359C31.645 0.174068 -0.457341 12.8549 0.65563 9.79426C5.93062 -4.71196 26.5317 -16.9184 38.4225 -25.5987C46.5994 -31.5678 57.7818 -38.4253 44.2494 -26.2461C28.079 -11.6928 5.19577 -2.51506 -9.70327 12.384" stroke="#F4F4F4" stroke-width="2" stroke-linecap="round" stroke-linejoin="round"/>
</svg>
